<svg height="2270" width="720" xmlns="http://www.w3.org/2000/svg">
<rect height="2270" fill="#555" width="720"></rect>
<text fill="#7f7" font-family="Courier New" font-size="12" xml:space="preserve">
<tspan x="10" y="26">41 megabytes installed</tspan>
<tspan x="10" y="42"></tspan>
<tspan x="10" y="58">node_modules</tspan>
<tspan x="10" y="74">├── UNMET PEER DEPENDENCY winston@^2.1.1</tspan>
<tspan x="10" y="90">└─┬ winston-cloudwatch@1.11.3 </tspan>
<tspan x="10" y="106">  ├── async@2.3.0 </tspan>
<tspan x="10" y="122">  ├─┬ aws-sdk@2.43.0 </tspan>
<tspan x="10" y="138">  │ ├─┬ buffer@4.9.1 </tspan>
<tspan x="10" y="154">  │ │ ├── base64-js@1.2.0 </tspan>
<tspan x="10" y="170">  │ │ ├── ieee754@1.1.8 </tspan>
<tspan x="10" y="186">  │ │ └── isarray@1.0.0 </tspan>
<tspan x="10" y="202">  │ ├── crypto-browserify@1.0.9 </tspan>
<tspan x="10" y="218">  │ ├── jmespath@0.15.0 </tspan>
<tspan x="10" y="234">  │ ├── querystring@0.2.0 </tspan>
<tspan x="10" y="250">  │ ├── sax@1.2.1 </tspan>
<tspan x="10" y="266">  │ ├─┬ url@0.10.3 </tspan>
<tspan x="10" y="282">  │ │ └── punycode@1.3.2 </tspan>
<tspan x="10" y="298">  │ ├── uuid@3.0.1 </tspan>
<tspan x="10" y="314">  │ ├── xml2js@0.4.17 </tspan>
<tspan x="10" y="330">  │ └── xmlbuilder@4.2.1 </tspan>
<tspan x="10" y="346">  ├─┬ chalk@1.1.3 </tspan>
<tspan x="10" y="362">  │ ├── ansi-styles@2.2.1 </tspan>
<tspan x="10" y="378">  │ ├── escape-string-regexp@1.0.5 </tspan>
<tspan x="10" y="394">  │ ├─┬ has-ansi@2.0.0 </tspan>
<tspan x="10" y="410">  │ │ └── ansi-regex@2.1.1 </tspan>
<tspan x="10" y="426">  │ ├── strip-ansi@3.0.1 </tspan>
<tspan x="10" y="442">  │ └── supports-color@2.0.0 </tspan>
<tspan x="10" y="458">  ├── lodash@4.17.4 </tspan>
<tspan x="10" y="474">  └─┬ proxy-agent@2.0.0 </tspan>
<tspan x="10" y="490">    ├─┬ agent-base@2.0.1 </tspan>
<tspan x="10" y="506">    │ └── semver@5.0.3 </tspan>
<tspan x="10" y="522">    ├─┬ debug@2.6.3 </tspan>
<tspan x="10" y="538">    │ └── ms@0.7.2 </tspan>
<tspan x="10" y="554">    ├── extend@3.0.0 </tspan>
<tspan x="10" y="570">    ├── http-proxy-agent@1.0.0 </tspan>
<tspan x="10" y="586">    ├── https-proxy-agent@1.0.0 </tspan>
<tspan x="10" y="602">    ├── lru-cache@2.6.5 </tspan>
<tspan x="10" y="618">    ├─┬ pac-proxy-agent@1.0.0 </tspan>
<tspan x="10" y="634">    │ ├─┬ get-uri@1.1.0 </tspan>
<tspan x="10" y="650">    │ │ ├── data-uri-to-buffer@0.0.4 </tspan>
<tspan x="10" y="666">    │ │ ├── file-uri-to-path@0.0.2 </tspan>
<tspan x="10" y="682">    │ │ ├─┬ ftp@0.3.10 </tspan>
<tspan x="10" y="698">    │ │ │ ├─┬ readable-stream@1.1.14 </tspan>
<tspan x="10" y="714">    │ │ │ │ ├── isarray@0.0.1 </tspan>
<tspan x="10" y="730">    │ │ │ │ └── string_decoder@0.10.31 </tspan>
<tspan x="10" y="746">    │ │ │ └── xregexp@2.0.0 </tspan>
<tspan x="10" y="762">    │ │ └─┬ readable-stream@2.2.9 </tspan>
<tspan x="10" y="778">    │ │   ├── buffer-shims@1.0.0 </tspan>
<tspan x="10" y="794">    │ │   ├── core-util-is@1.0.2 </tspan>
<tspan x="10" y="810">    │ │   ├── inherits@2.0.3 </tspan>
<tspan x="10" y="826">    │ │   ├── process-nextick-args@1.0.7 </tspan>
<tspan x="10" y="842">    │ │   ├── string_decoder@1.0.0 </tspan>
<tspan x="10" y="858">    │ │   └── util-deprecate@1.0.2 </tspan>
<tspan x="10" y="874">    │ ├─┬ pac-resolver@1.2.6 </tspan>
<tspan x="10" y="890">    │ │ ├── co@3.0.6 </tspan>
<tspan x="10" y="906">    │ │ ├─┬ degenerator@1.0.4 </tspan>
<tspan x="10" y="922">    │ │ │ ├── ast-types@0.9.11 </tspan>
<tspan x="10" y="938">    │ │ │ ├─┬ escodegen@1.8.1 </tspan>
<tspan x="10" y="954">    │ │ │ │ ├── esprima@2.7.3 </tspan>
<tspan x="10" y="970">    │ │ │ │ ├── estraverse@1.9.3 </tspan>
<tspan x="10" y="986">    │ │ │ │ ├── esutils@2.0.2 </tspan>
<tspan x="10" y="1002">    │ │ │ │ ├─┬ optionator@0.8.2 </tspan>
<tspan x="10" y="1018">    │ │ │ │ │ ├── deep-is@0.1.3 </tspan>
<tspan x="10" y="1034">    │ │ │ │ │ ├── fast-levenshtein@2.0.6 </tspan>
<tspan x="10" y="1050">    │ │ │ │ │ ├── levn@0.3.0 </tspan>
<tspan x="10" y="1066">    │ │ │ │ │ ├── prelude-ls@1.1.2 </tspan>
<tspan x="10" y="1082">    │ │ │ │ │ ├── type-check@0.3.2 </tspan>
<tspan x="10" y="1098">    │ │ │ │ │ └── wordwrap@1.0.0 </tspan>
<tspan x="10" y="1114">    │ │ │ │ └─┬ source-map@0.2.0 </tspan>
<tspan x="10" y="1130">    │ │ │ │   └── amdefine@1.0.1 </tspan>
<tspan x="10" y="1146">    │ │ │ └── esprima@3.1.3 </tspan>
<tspan x="10" y="1162">    │ │ ├── netmask@1.0.6 </tspan>
<tspan x="10" y="1178">    │ │ ├─┬ regenerator@0.8.46 </tspan>
<tspan x="10" y="1194">    │ │ │ ├─┬ commoner@0.10.8 </tspan>
<tspan x="10" y="1210">    │ │ │ │ ├─┬ commander@2.9.0 </tspan>
<tspan x="10" y="1226">    │ │ │ │ │ └── graceful-readlink@1.0.1 </tspan>
<tspan x="10" y="1242">    │ │ │ │ ├─┬ detective@4.5.0 </tspan>
<tspan x="10" y="1258">    │ │ │ │ │ ├── acorn@4.0.11 </tspan>
<tspan x="10" y="1274">    │ │ │ │ │ └── defined@1.0.0 </tspan>
<tspan x="10" y="1290">    │ │ │ │ ├─┬ glob@5.0.15 </tspan>
<tspan x="10" y="1306">    │ │ │ │ │ ├─┬ inflight@1.0.6 </tspan>
<tspan x="10" y="1322">    │ │ │ │ │ │ └── wrappy@1.0.2 </tspan>
<tspan x="10" y="1338">    │ │ │ │ │ ├─┬ minimatch@3.0.3 </tspan>
<tspan x="10" y="1354">    │ │ │ │ │ │ └─┬ brace-expansion@1.1.7 </tspan>
<tspan x="10" y="1370">    │ │ │ │ │ │   ├── balanced-match@0.4.2 </tspan>
<tspan x="10" y="1386">    │ │ │ │ │ │   └── concat-map@0.0.1 </tspan>
<tspan x="10" y="1402">    │ │ │ │ │ ├── once@1.4.0 </tspan>
<tspan x="10" y="1418">    │ │ │ │ │ └── path-is-absolute@1.0.1 </tspan>
<tspan x="10" y="1434">    │ │ │ │ ├── graceful-fs@4.1.11 </tspan>
<tspan x="10" y="1450">    │ │ │ │ ├── iconv-lite@0.4.15 </tspan>
<tspan x="10" y="1466">    │ │ │ │ ├─┬ mkdirp@0.5.1 </tspan>
<tspan x="10" y="1482">    │ │ │ │ │ └── minimist@0.0.8 </tspan>
<tspan x="10" y="1498">    │ │ │ │ ├── q@1.5.0 </tspan>
<tspan x="10" y="1514">    │ │ │ │ └─┬ recast@0.11.23 </tspan>
<tspan x="10" y="1530">    │ │ │ │   ├── ast-types@0.9.6 </tspan>
<tspan x="10" y="1546">    │ │ │ │   └── source-map@0.5.6 </tspan>
<tspan x="10" y="1562">    │ │ │ ├─┬ defs@1.1.1 </tspan>
<tspan x="10" y="1578">    │ │ │ │ ├─┬ alter@0.2.0 </tspan>
<tspan x="10" y="1594">    │ │ │ │ │ └── stable@0.1.6 </tspan>
<tspan x="10" y="1610">    │ │ │ │ ├── ast-traverse@0.1.1 </tspan>
<tspan x="10" y="1626">    │ │ │ │ ├── breakable@1.0.0 </tspan>
<tspan x="10" y="1642">    │ │ │ │ ├── esprima-fb@15001.1001.0-dev-harmony-fb </tspan>
<tspan x="10" y="1658">    │ │ │ │ ├── simple-fmt@0.1.0 </tspan>
<tspan x="10" y="1674">    │ │ │ │ ├── simple-is@0.2.0 </tspan>
<tspan x="10" y="1690">    │ │ │ │ ├── stringmap@0.2.2 </tspan>
<tspan x="10" y="1706">    │ │ │ │ ├── stringset@0.2.1 </tspan>
<tspan x="10" y="1722">    │ │ │ │ ├── tryor@0.1.2 </tspan>
<tspan x="10" y="1738">    │ │ │ │ └─┬ yargs@3.27.0 </tspan>
<tspan x="10" y="1754">    │ │ │ │   ├── camelcase@1.2.1 </tspan>
<tspan x="10" y="1770">    │ │ │ │   ├─┬ cliui@2.1.0 </tspan>
<tspan x="10" y="1786">    │ │ │ │   │ ├─┬ center-align@0.1.3 </tspan>
<tspan x="10" y="1802">    │ │ │ │   │ │ ├─┬ align-text@0.1.4 </tspan>
<tspan x="10" y="1818">    │ │ │ │   │ │ │ ├─┬ kind-of@3.1.0 </tspan>
<tspan x="10" y="1834">    │ │ │ │   │ │ │ │ └── is-buffer@1.1.5 </tspan>
<tspan x="10" y="1850">    │ │ │ │   │ │ │ ├── longest@1.0.1 </tspan>
<tspan x="10" y="1866">    │ │ │ │   │ │ │ └── repeat-string@1.6.1 </tspan>
<tspan x="10" y="1882">    │ │ │ │   │ │ └── lazy-cache@1.0.4 </tspan>
<tspan x="10" y="1898">    │ │ │ │   │ ├── right-align@0.1.3 </tspan>
<tspan x="10" y="1914">    │ │ │ │   │ └── wordwrap@0.0.2 </tspan>
<tspan x="10" y="1930">    │ │ │ │   ├── decamelize@1.2.0 </tspan>
<tspan x="10" y="1946">    │ │ │ │   ├─┬ os-locale@1.4.0 </tspan>
<tspan x="10" y="1962">    │ │ │ │   │ └─┬ lcid@1.0.0 </tspan>
<tspan x="10" y="1978">    │ │ │ │   │   └── invert-kv@1.0.0 </tspan>
<tspan x="10" y="1994">    │ │ │ │   ├── window-size@0.1.4 </tspan>
<tspan x="10" y="2010">    │ │ │ │   └── y18n@3.2.1 </tspan>
<tspan x="10" y="2026">    │ │ │ ├── esprima-fb@15001.1001.0-dev-harmony-fb </tspan>
<tspan x="10" y="2042">    │ │ │ ├── private@0.1.7 </tspan>
<tspan x="10" y="2058">    │ │ │ ├─┬ recast@0.10.33 </tspan>
<tspan x="10" y="2074">    │ │ │ │ ├── ast-types@0.8.12 </tspan>
<tspan x="10" y="2090">    │ │ │ │ ├── esprima-fb@15001.1001.0-dev-harmony-fb </tspan>
<tspan x="10" y="2106">    │ │ │ │ └── source-map@0.5.6 </tspan>
<tspan x="10" y="2122">    │ │ │ ├── regenerator-runtime@0.9.6 </tspan>
<tspan x="10" y="2138">    │ │ │ └── through@2.3.8 </tspan>
<tspan x="10" y="2154">    │ │ └── thunkify@2.1.2 </tspan>
<tspan x="10" y="2170">    │ └─┬ stream-to-buffer@0.1.0 </tspan>
<tspan x="10" y="2186">    │   └── stream-to@0.2.2 </tspan>
<tspan x="10" y="2202">    └─┬ socks-proxy-agent@2.0.0 </tspan>
<tspan x="10" y="2218">      └─┬ socks@1.1.10 </tspan>
<tspan x="10" y="2234">        ├── ip@1.1.5 </tspan>
<tspan x="10" y="2250">        └── smart-buffer@1.1.15</tspan>
</text>
</svg>
